<svg xmlns="http://www.w3.org/2000/svg" width="128" height="128" viewBox="0 0 128 128">
  <defs>
    <linearGradient id="bg" x1="0%" y1="0%" x2="100%" y2="100%">
      <stop offset="0%" stop-color="#FF4444"/>
      <stop offset="100%" stop-color="#CC0000"/>
    </linearGradient>
  </defs>
  <!-- Background -->
  <rect width="128" height="128" rx="28" fill="url(#bg)"/>
  <!-- Document body -->
  <rect x="28" y="22" width="56" height="84" rx="8" fill="white" opacity="0.95"/>
  <!-- Text lines -->
  <rect x="38" y="40" width="36" height="5" rx="2.5" fill="#CC0000" opacity="0.6"/>
  <rect x="38" y="52" width="28" height="5" rx="2.5" fill="#CC0000" opacity="0.45"/>
  <rect x="38" y="64" width="32" height="5" rx="2.5" fill="#CC0000" opacity="0.35"/>
  <rect x="38" y="76" width="20" height="5" rx="2.5" fill="#CC0000" opacity="0.25"/>
  <!-- AI Sparkle (4-point star) -->
  <path d="M96 18 L100 32 L114 36 L100 40 L96 54 L92 40 L78 36 L92 32 Z" fill="white"/>
  <!-- Small sparkle -->
  <path d="M106 58 L108 64 L114 66 L108 68 L106 74 L104 68 L98 66 L104 64 Z" fill="white" opacity="0.7"/>
</svg>
